<svg width="32" height="21" viewBox="0 0 32 21" fill="none" xmlns="http://www.w3.org/2000/svg">
<g clip-path="url(#clip0)">
<path d="M30.6853 5.59452L17.1704 2.45153L21.266 6.54708C21.2708 6.55192 21.2805 6.55192 21.2853 6.55675C22.1944 6.94358 23.0115 7.48998 23.7127 8.19594C24.4138 8.89707 24.965 9.71424 25.3519 10.6233C25.7484 11.5662 25.9514 12.5671 25.9514 13.597C25.9514 14.627 25.7484 15.6279 25.3519 16.5708C25.1246 17.1075 24.8441 17.6104 24.5057 18.0746L25.671 18.3309L27.6196 18.7854C28.4271 18.974 29.2395 18.4711 29.4281 17.6587L31.8119 7.40778C32.0005 6.5906 31.4928 5.7831 30.6853 5.59452Z" fill="black"/>
<path d="M13.1084 0.439718C12.5233 -0.145362 11.5707 -0.145362 10.9808 0.439718L0.439724 10.9808C-0.145354 11.5707 -0.145354 12.5233 0.439724 13.1132L7.88618 20.5597C7.97805 20.6516 8.07959 20.7289 8.18597 20.7918C8.22949 20.816 8.273 20.8401 8.31652 20.8595C8.71786 21.0432 9.18205 21.0432 9.58339 20.8595C9.6269 20.8401 9.67042 20.816 9.71394 20.7918C9.82032 20.7289 9.92186 20.6516 10.0137 20.5597L11.4305 19.1429L12.2815 18.2919C11.8753 17.7745 11.5417 17.2039 11.2806 16.5947L10.0959 17.7842L8.95479 18.9253L5.39113 15.3617L15.3568 5.39597L16.2127 6.25183C16.5995 6.14062 16.996 6.06325 17.3973 6.0149C17.6971 5.98105 18.0017 5.96171 18.3112 5.96171C18.4176 5.96171 18.524 5.96171 18.6303 5.96655L13.1084 0.439718ZM3.19588 13.1616L2.07891 12.0446L12.0446 2.07407L13.1616 3.19104L3.19588 13.1616Z" fill="black"/>
<path d="M17.6298 12.9394V12.8959H17.6733L17.6298 12.9394Z" fill="black"/>
<path d="M22.441 8.98411C22.1944 8.76168 21.9237 8.5586 21.6432 8.37485C21.2709 8.13792 20.8744 7.93484 20.4537 7.7801C19.9218 7.58669 19.3609 7.46097 18.771 7.41745C18.6163 7.40778 18.4615 7.40295 18.3068 7.40295C18.007 7.40295 17.7169 7.42229 17.4316 7.46581C17.1415 7.50932 16.861 7.56735 16.5854 7.64955C16.3291 7.72208 16.0728 7.81395 15.8311 7.92033C13.6455 8.87773 12.1175 11.0585 12.1175 13.5971C12.1175 13.6309 12.1175 13.6696 12.1175 13.7034C12.1223 14.0226 12.1513 14.3369 12.2045 14.6415C12.2529 14.9219 12.3206 15.1976 12.4028 15.4683C12.6059 16.1163 12.9202 16.7207 13.3118 17.2574C13.4569 17.4557 13.6116 17.6394 13.776 17.8183C13.9404 17.9972 14.1145 18.1616 14.3031 18.3212C15.3814 19.2399 16.7788 19.7912 18.3068 19.7912C20.1346 19.7912 21.7834 18.9982 22.9149 17.7313C23.8965 16.6337 24.4961 15.1879 24.4961 13.6019C24.5009 11.7644 23.7079 10.1156 22.441 8.98411ZM17.6298 16.6965V14.2885H15.1735V12.8911H17.6298V10.4831H18.9306V12.8911H21.3869V14.2885H18.9306V16.6965H17.6298Z" fill="black"/>
</g>
<defs>
<clipPath id="clip0">
<rect width="31.8506" height="21" fill="white"/>
</clipPath>
</defs>
</svg>
