<svg width="22" height="30" viewBox="0 0 22 30" fill="none" xmlns="http://www.w3.org/2000/svg">
<path d="M21.7071 8.70711C22.0976 8.31658 22.0976 7.68342 21.7071 7.29289L15.3431 0.928932C14.9526 0.538408 14.3195 0.538408 13.9289 0.928932C13.5384 1.31946 13.5384 1.95262 13.9289 2.34315L19.5858 8L13.9289 13.6569C13.5384 14.0474 13.5384 14.6805 13.9289 15.0711C14.3195 15.4616 14.9526 15.4616 15.3431 15.0711L21.7071 8.70711ZM1 9L21 9V7L1 7L1 9Z" fill="black"/>
<path d="M0.292892 21.2929C-0.0976315 21.6834 -0.0976315 22.3166 0.292892 22.7071L6.65685 29.0711C7.04738 29.4616 7.68054 29.4616 8.07107 29.0711C8.46159 28.6805 8.46159 28.0474 8.07107 27.6569L2.41421 22L8.07107 16.3431C8.46159 15.9526 8.46159 15.3195 8.07107 14.9289C7.68054 14.5384 7.04738 14.5384 6.65685 14.9289L0.292892 21.2929ZM21 21L1 21V23L21 23V21Z" fill="black"/>
</svg>
