<svg width="26" height="18" viewBox="0 0 26 18" fill="none" xmlns="http://www.w3.org/2000/svg">
<path d="M22.8854 7.66477C21.2129 4.14365 17.4098 0.96875 12.9609 0.96875C7.95514 0.96875 4.35697 4.88462 3.03647 7.66477C2.93576 7.87687 2.93576 8.12315 3.03647 8.33524C4.70899 11.8564 8.51209 15.0313 12.9609 15.0313C17.9668 15.0313 21.5649 11.1152 22.8854 8.33524C22.9861 8.12315 22.9861 7.87687 22.8854 7.66477ZM12.9609 13.4688C9.3617 13.4688 6.37754 11.0968 4.62705 8.00001C6.37021 4.9159 9.35255 2.53125 12.9609 2.53125C16.5599 2.53125 19.5444 4.90293 21.2948 8.00001C19.5517 11.084 16.5693 13.4688 12.9609 13.4688Z" fill="black"/>
<path d="M13 14.5V18M22 8L25 10.5M4 8L0.5 11M18 12.5L21 16M7.5 12.5L4.5 16" stroke="black" stroke-width="1.5"/>
</svg>
