<svg width="20" height="20" viewBox="0 0 20 20" fill="none" xmlns="http://www.w3.org/2000/svg">
<g clip-path="url(#clip0)">
<path d="M19.8854 9.66477C18.2129 6.14365 14.4098 2.96875 9.96095 2.96875C4.95514 2.96875 1.35697 6.88462 0.0364686 9.66477C-0.0642395 9.87687 -0.0642395 10.1231 0.0364686 10.3352C1.70899 13.8564 5.51209 17.0313 9.96095 17.0313C14.9668 17.0313 18.5649 13.1152 19.8854 10.3352C19.9861 10.1231 19.9861 9.87687 19.8854 9.66477ZM9.96095 15.4688C6.3617 15.4688 3.37754 13.0968 1.62705 10C3.37021 6.9159 6.35255 4.53125 9.96095 4.53125C13.5599 4.53125 16.5444 6.90293 18.2948 10C16.5517 13.084 13.5693 15.4688 9.96095 15.4688ZM9.96095 6.09375C7.80701 6.09375 6.05469 7.84607 6.05469 10C6.05469 12.1539 7.80701 13.9063 9.96095 13.9063C12.1149 13.9063 13.8672 12.1539 13.8672 10C13.8672 7.84607 12.1149 6.09375 9.96095 6.09375ZM9.96095 12.3438C8.66868 12.3438 7.61719 11.2923 7.61719 10C7.61719 8.70759 8.66868 7.65625 9.96095 7.65625C11.2534 7.65625 12.3047 8.70759 12.3047 10C12.3047 11.2923 11.2534 12.3438 9.96095 12.3438Z" fill="black"/>
</g>
<defs>
<clipPath id="clip0">
<rect width="20" height="20" fill="white"/>
</clipPath>
</defs>
</svg>
