<svg width="33" height="24" viewBox="0 0 33 24" fill="none" xmlns="http://www.w3.org/2000/svg">
<g clip-path="url(#clip0)">
<path d="M13.6247 0.448242C13.0166 -0.147695 12.0266 -0.147695 11.4134 0.448242L0.457424 11.185C-0.150684 11.7858 -0.150684 12.7561 0.457424 13.3569L6.45308 19.2276C6.03594 18.3362 5.81481 17.361 5.81481 16.3563C5.81481 14.5143 6.54856 12.7856 7.87535 11.4805C9.20213 10.1802 10.9712 9.46117 12.8508 9.46117C13.1071 9.46117 13.3634 9.47595 13.6147 9.50058L18.2383 4.96948L13.6247 0.448242Z" fill="black"/>
<path d="M32.2699 12.8102L30.7974 14.2532L22.7864 22.1088L21.3139 23.5518C21.2184 23.6454 21.1129 23.7242 21.0023 23.7882C20.9571 23.8129 20.9119 23.8375 20.8666 23.8572C20.4495 24.0443 19.967 24.0443 19.5499 23.8572C19.5047 23.8375 19.4594 23.8129 19.4142 23.7882C19.3036 23.7242 19.1981 23.6454 19.1026 23.5518L17.2532 21.7345C17.4492 21.5769 17.6452 21.4094 17.8261 21.2321C18.1176 20.9464 18.3839 20.6362 18.6151 20.3111L20.2133 21.8773L21.3994 20.715L29.3801 12.8841L30.5712 11.7168L26.8673 8.09194L19.761 15.061C19.6002 14.2188 19.2785 13.4209 18.8111 12.6969C18.6604 12.4605 18.4945 12.229 18.3086 12.0123L21.7411 8.64848L24.5806 5.86579L23.4197 4.7281L20.7058 7.38765L17.1376 10.8894C16.5847 10.4708 15.9817 10.1408 15.3384 9.90438L19.3087 6.01355L22.3241 3.05849C22.9372 2.45763 23.9273 2.45763 24.5354 3.05849L32.2699 10.6382C32.878 11.2391 32.878 12.2093 32.2699 12.8102Z" fill="black"/>
<path d="M17.7106 13.7755C17.5699 13.5243 17.4141 13.2879 17.2382 13.0614C17.0874 12.8644 16.9165 12.6772 16.7406 12.5048C16.7105 12.4753 16.6753 12.4457 16.6452 12.4162C16.4642 12.2438 16.2682 12.0862 16.0622 11.9434C15.4892 11.5444 14.8359 11.2489 14.1323 11.0864C13.8308 11.0174 13.5242 10.9682 13.2026 10.9485C13.087 10.9386 12.9714 10.9386 12.8508 10.9386C12.5944 10.9386 12.3432 10.9534 12.0969 10.9879C9.40314 11.3474 7.32251 13.613 7.32251 16.3513C7.32251 18.4002 8.48344 20.188 10.2022 21.104C10.9862 21.5276 11.8909 21.764 12.8508 21.764C13.5393 21.764 14.1976 21.6409 14.8007 21.4143C15.052 21.3208 15.2983 21.2124 15.5294 21.0843C15.7556 20.9612 15.9717 20.8233 16.1727 20.6706C16.7055 20.2766 17.1628 19.789 17.5196 19.2374C17.6603 19.0207 17.786 18.7942 17.8915 18.5578C18.0322 18.2524 18.1428 17.9323 18.2232 17.5974C18.3187 17.2132 18.369 16.8192 18.369 16.4104C18.369 16.3907 18.369 16.371 18.369 16.3464C18.379 15.4254 18.1378 14.5438 17.7106 13.7755ZM16.2883 16.3957L14.0469 18.5922L13.6197 19.0109L13.0015 18.4051L12.8005 18.2081L13.2227 17.7895L14.0619 16.967H10.0464V15.7455H14.0016L12.8005 14.5684L13.6197 13.7657L13.9062 14.0464L14.4389 14.5684L14.5344 14.662L15.0671 15.1841L15.6702 15.7751L16.2833 16.376L16.2732 16.3858L16.2883 16.3957Z" fill="black"/>
</g>
<defs>
<clipPath id="clip0">
<rect width="32.7273" height="24" fill="white"/>
</clipPath>
</defs>
</svg>
