<svg width="24" height="24" viewBox="0 0 24 24" fill="none" xmlns="http://www.w3.org/2000/svg">
<g clip-path="url(#clip0)">
<path d="M19.1293 6.26544C19.4882 6.26544 19.5929 5.78613 19.2639 5.64429L6.59583 0.132161C5.82309 -0.205316 4.91573 0.132161 4.57174 0.895153L0.134679 10.6575C-0.209318 11.4156 0.134679 12.3058 0.912411 12.6433L3.46995 13.7291C3.78902 13.866 4.15296 13.641 4.15296 13.2987V9.14623C4.15296 7.56155 5.46414 6.27033 7.08441 6.27033H19.1343L19.1293 6.26544Z" fill="black"/>
<path d="M22.4495 7.62014H7.07437C6.21687 7.62014 5.5239 8.29998 5.5239 9.14123V19.7938C5.5239 20.635 6.21687 21.3149 7.07437 21.3149H7.42335C7.01455 20.4247 6.80017 19.4514 6.80017 18.4439C6.80017 17.3825 7.03947 16.3554 7.49315 15.4212V14.2865H8.18613C8.4005 14.0029 8.63482 13.7339 8.89407 13.4746C10.2451 12.1492 12.0449 11.4155 13.9593 11.4155C15.8737 11.4155 17.6685 12.1492 19.0245 13.4746C19.2838 13.729 19.5231 13.998 19.7325 14.2865H22.0208V19.3829H21.0536C20.9639 20.053 20.7744 20.7035 20.4952 21.3149H22.4346C23.2921 21.3149 23.9851 20.635 23.9851 19.7938V9.14123C24 8.29998 23.302 7.62014 22.4495 7.62014ZM22.0307 11.1465H7.49814V9.54718H22.0307V11.1465Z" fill="black"/>
<path d="M17.7283 14.2865C16.7262 13.4159 15.4101 12.8877 13.9693 12.8877C12.5285 12.8877 11.2123 13.4159 10.2102 14.2865C9.04363 15.3039 8.30579 16.7907 8.30579 18.4439C8.30579 18.7667 8.3357 19.0797 8.38555 19.3829C8.5052 20.0774 8.75946 20.7328 9.11842 21.3149C10.1105 22.924 11.9153 24 13.9693 24C17.1001 24 19.6377 21.5105 19.6377 18.439C19.6327 16.7907 18.8949 15.3039 17.7283 14.2865ZM15.5945 20.635C15.3502 20.9334 15.0262 21.129 14.6523 21.2317C14.4878 21.2757 14.413 21.3589 14.4229 21.5301C14.4329 21.6915 14.4229 21.8529 14.4229 22.024C14.4229 22.1708 14.3432 22.249 14.1986 22.249C14.1089 22.2539 14.0191 22.2539 13.9294 22.2539C13.8396 22.2539 13.7499 22.2539 13.6602 22.249C13.5006 22.249 13.4308 22.1561 13.4308 22.0094V21.6474C13.4308 21.3882 13.4159 21.3735 13.1566 21.3295C12.8276 21.2806 12.4986 21.2024 12.1994 21.0605C11.9601 20.948 11.9352 20.8893 12.005 20.6448C12.0549 20.4589 12.1047 20.278 12.1645 20.1019C12.2044 19.9698 12.2443 19.9111 12.3141 19.9111C12.359 19.9111 12.4138 19.9307 12.4886 19.9698C12.8276 20.141 13.1816 20.2388 13.5555 20.2829C13.6203 20.2926 13.6801 20.2926 13.7449 20.2926C13.9194 20.2926 14.0889 20.2633 14.2534 20.1899C14.6722 20.0139 14.737 19.5394 14.3831 19.2558C14.2634 19.1579 14.1288 19.0846 13.9892 19.0308C13.6203 18.8743 13.2414 18.7569 12.9024 18.5515C12.339 18.2238 11.9851 17.7738 12.0299 17.1037C12.0748 16.3456 12.5135 15.881 13.2214 15.6267C13.5106 15.5191 13.5156 15.5288 13.5156 15.2305V14.9272C13.5206 14.7023 13.5605 14.6631 13.7898 14.6582H13.9992C14.4878 14.6582 14.4878 14.6582 14.4878 15.1376C14.4878 15.475 14.4878 15.475 14.8318 15.5288C15.091 15.5729 15.3453 15.6413 15.5895 15.7489C15.7291 15.8076 15.779 15.8957 15.7341 16.0375C15.6743 16.2429 15.6195 16.4532 15.5447 16.6538C15.4998 16.776 15.4599 16.8347 15.3851 16.8347C15.3453 16.8347 15.2954 16.8201 15.2306 16.7907C14.8916 16.6293 14.5426 16.5559 14.1787 16.5559C14.1338 16.5559 14.0839 16.5559 14.0341 16.5608C13.9244 16.5657 13.8197 16.5804 13.715 16.6244C13.3561 16.7809 13.2912 17.1771 13.6003 17.4168C13.7599 17.539 13.9344 17.6271 14.1188 17.7053C14.4429 17.8325 14.762 17.9597 15.0711 18.1308C16.0133 18.6248 16.2825 19.8231 15.5945 20.635Z" fill="black"/>
<path d="M15.5946 20.635C15.3503 20.9334 15.0262 21.129 14.6523 21.2317C14.4878 21.2757 14.413 21.3589 14.423 21.5301C14.4329 21.6915 14.423 21.8529 14.423 22.024C14.423 22.1708 14.3432 22.249 14.1986 22.249C14.1089 22.2539 14.0191 22.2539 13.9294 22.2539C13.8397 22.2539 13.7499 22.2539 13.6602 22.249C13.5007 22.249 13.4309 22.1561 13.4309 22.0094V21.6474C13.4309 21.3882 13.4159 21.3735 13.1567 21.3295C12.8276 21.2806 12.4986 21.2024 12.1994 21.0605C11.9601 20.948 11.9352 20.8893 12.005 20.6448C12.0549 20.4589 12.1047 20.278 12.1646 20.1019C12.2044 19.9698 12.2443 19.9111 12.3141 19.9111C12.359 19.9111 12.4138 19.9307 12.4886 19.9698C12.8276 20.141 13.1816 20.2388 13.5555 20.2829C13.6203 20.2926 13.6801 20.2926 13.7449 20.2926C13.9194 20.2926 14.0889 20.2633 14.2535 20.1899C14.6722 20.0139 14.7371 19.5394 14.3831 19.2558C14.2634 19.1579 14.1288 19.0846 13.9892 19.0308C13.6203 18.8743 13.2414 18.7569 12.9024 18.5515C12.339 18.2238 11.9851 17.7738 12.0299 17.1037C12.0748 16.3456 12.5135 15.881 13.2215 15.6267C13.5106 15.5191 13.5156 15.5288 13.5156 15.2305V14.9272C13.5206 14.7023 13.5605 14.6631 13.7898 14.6582H13.9992C14.4878 14.6582 14.4878 14.6582 14.4878 15.1376C14.4878 15.475 14.4878 15.475 14.8318 15.5288C15.091 15.5729 15.3453 15.6413 15.5896 15.7489C15.7292 15.8076 15.779 15.8957 15.7341 16.0375C15.6743 16.2429 15.6195 16.4532 15.5447 16.6538C15.4998 16.776 15.4599 16.8347 15.3852 16.8347C15.3453 16.8347 15.2954 16.8201 15.2306 16.7907C14.8916 16.6293 14.5426 16.5559 14.1787 16.5559C14.1338 16.5559 14.084 16.5559 14.0341 16.5608C13.9244 16.5657 13.8197 16.5804 13.715 16.6244C13.3561 16.7809 13.2913 17.1771 13.6004 17.4167C13.7599 17.539 13.9344 17.6271 14.1189 17.7053C14.4429 17.8325 14.762 17.9596 15.0711 18.1308C16.0133 18.6248 16.2825 19.8231 15.5946 20.635Z" fill="black"/>
<path d="M15.0611 18.1113C14.752 17.9401 14.4329 17.8129 14.1089 17.6857C13.9194 17.6075 13.7499 17.5146 13.5904 17.3972C13.2813 17.1575 13.3461 16.7614 13.705 16.6048C13.8048 16.5608 13.9144 16.5462 14.0241 16.5413C14.069 16.5364 14.1188 16.5364 14.1687 16.5364C14.5326 16.5364 14.8866 16.6097 15.2206 16.7711C15.2854 16.8005 15.3353 16.8152 15.3752 16.8152C15.45 16.8152 15.4948 16.7614 15.5347 16.6342C15.6045 16.4385 15.6643 16.2233 15.7242 16.0179C15.769 15.8761 15.7192 15.7832 15.5796 15.7294C15.3353 15.6218 15.081 15.5533 14.8218 15.5093C14.4778 15.4604 14.4778 15.4604 14.4778 15.118C14.4778 14.6387 14.4778 14.6387 13.9892 14.6387H13.7798C13.5505 14.6436 13.5106 14.6827 13.5056 14.9077V15.2109C13.5056 15.5093 13.4957 15.4995 13.2115 15.6071C12.5036 15.8614 12.0648 16.3261 12.02 17.0842C11.9751 17.7542 12.3291 18.2091 12.8924 18.5319C13.2314 18.7373 13.6153 18.8547 13.9792 19.0112C14.1238 19.0699 14.2534 19.1384 14.3731 19.2362C14.7271 19.5199 14.6623 19.9943 14.2435 20.1704C14.079 20.2437 13.9095 20.2731 13.735 20.2731C13.6701 20.2731 13.6103 20.2682 13.5455 20.2633C13.1716 20.2193 12.8176 20.1214 12.4786 19.9503C12.4038 19.9111 12.349 19.8916 12.3041 19.8916C12.2294 19.8916 12.1945 19.9503 12.1546 20.0823C12.0947 20.2584 12.0449 20.4443 11.995 20.6252C11.9252 20.8747 11.9502 20.9285 12.1895 21.041C12.4936 21.1828 12.8176 21.261 13.1467 21.31C13.4059 21.354 13.4209 21.3686 13.4209 21.6279V21.9898C13.4209 22.1365 13.4907 22.2295 13.6502 22.2295C13.7399 22.2343 13.8297 22.2344 13.9194 22.2344C14.0092 22.2344 14.0989 22.2343 14.1886 22.2295C14.3332 22.2295 14.413 22.1512 14.413 22.0045C14.413 21.8333 14.423 21.6719 14.413 21.5105C14.408 21.3393 14.4778 21.2562 14.6423 21.2121C15.0162 21.1143 15.3403 20.9138 15.5846 20.6154C16.2825 19.8231 16.0133 18.6248 15.0611 18.1113ZM15.0611 18.1113C14.752 17.9401 14.4329 17.8129 14.1089 17.6857C13.9194 17.6075 13.7499 17.5146 13.5904 17.3972C13.2813 17.1575 13.3461 16.7614 13.705 16.6048C13.8048 16.5608 13.9144 16.5462 14.0241 16.5413C14.069 16.5364 14.1188 16.5364 14.1687 16.5364C14.5326 16.5364 14.8866 16.6097 15.2206 16.7711C15.2854 16.8005 15.3353 16.8152 15.3752 16.8152C15.45 16.8152 15.4948 16.7614 15.5347 16.6342C15.6045 16.4385 15.6643 16.2233 15.7242 16.0179C15.769 15.8761 15.7192 15.7832 15.5796 15.7294C15.3353 15.6218 15.081 15.5533 14.8218 15.5093C14.4778 15.4604 14.4778 15.4604 14.4778 15.118C14.4778 14.6387 14.4778 14.6387 13.9892 14.6387H13.7798C13.5505 14.6436 13.5106 14.6827 13.5056 14.9077V15.2109C13.5056 15.5093 13.4957 15.4995 13.2115 15.6071C12.5036 15.8614 12.0648 16.3261 12.02 17.0842C11.9751 17.7542 12.3291 18.2091 12.8924 18.5319C13.2314 18.7373 13.6153 18.8547 13.9792 19.0112C14.1238 19.0699 14.2534 19.1384 14.3731 19.2362C14.7271 19.5199 14.6623 19.9943 14.2435 20.1704C14.079 20.2437 13.9095 20.2731 13.735 20.2731C13.6701 20.2731 13.6103 20.2682 13.5455 20.2633C13.1716 20.2193 12.8176 20.1214 12.4786 19.9503C12.4038 19.9111 12.349 19.8916 12.3041 19.8916C12.2294 19.8916 12.1945 19.9503 12.1546 20.0823C12.0947 20.2584 12.0449 20.4443 11.995 20.6252C11.9252 20.8747 11.9502 20.9285 12.1895 21.041C12.4936 21.1828 12.8176 21.261 13.1467 21.31C13.4059 21.354 13.4209 21.3686 13.4209 21.6279V21.9898C13.4209 22.1365 13.4907 22.2295 13.6502 22.2295C13.7399 22.2343 13.8297 22.2344 13.9194 22.2344C14.0092 22.2344 14.0989 22.2343 14.1886 22.2295C14.3332 22.2295 14.413 22.1512 14.413 22.0045C14.413 21.8333 14.423 21.6719 14.413 21.5105C14.408 21.3393 14.4778 21.2562 14.6423 21.2121C15.0162 21.1143 15.3403 20.9138 15.5846 20.6154C16.2825 19.8231 16.0133 18.6248 15.0611 18.1113ZM15.0611 18.1113C14.752 17.9401 14.4329 17.8129 14.1089 17.6857C13.9194 17.6075 13.7499 17.5146 13.5904 17.3972C13.2813 17.1575 13.3461 16.7614 13.705 16.6048C13.8048 16.5608 13.9144 16.5462 14.0241 16.5413C14.069 16.5364 14.1188 16.5364 14.1687 16.5364C14.5326 16.5364 14.8866 16.6097 15.2206 16.7711C15.2854 16.8005 15.3353 16.8152 15.3752 16.8152C15.45 16.8152 15.4948 16.7614 15.5347 16.6342C15.6045 16.4385 15.6643 16.2233 15.7242 16.0179C15.769 15.8761 15.7192 15.7832 15.5796 15.7294C15.3353 15.6218 15.081 15.5533 14.8218 15.5093C14.4778 15.4604 14.4778 15.4604 14.4778 15.118C14.4778 14.6387 14.4778 14.6387 13.9892 14.6387H13.7798C13.5505 14.6436 13.5106 14.6827 13.5056 14.9077V15.2109C13.5056 15.5093 13.4957 15.4995 13.2115 15.6071C12.5036 15.8614 12.0648 16.3261 12.02 17.0842C11.9751 17.7542 12.3291 18.2091 12.8924 18.5319C13.2314 18.7373 13.6153 18.8547 13.9792 19.0112C14.1238 19.0699 14.2534 19.1384 14.3731 19.2362C14.7271 19.5199 14.6623 19.9943 14.2435 20.1704C14.079 20.2437 13.9095 20.2731 13.735 20.2731C13.6701 20.2731 13.6103 20.2682 13.5455 20.2633C13.1716 20.2193 12.8176 20.1214 12.4786 19.9503C12.4038 19.9111 12.349 19.8916 12.3041 19.8916C12.2294 19.8916 12.1945 19.9503 12.1546 20.0823C12.0947 20.2584 12.0449 20.4443 11.995 20.6252C11.9252 20.8747 11.9502 20.9285 12.1895 21.041C12.4936 21.1828 12.8176 21.261 13.1467 21.31C13.4059 21.354 13.4209 21.3686 13.4209 21.6279V21.9898C13.4209 22.1365 13.4907 22.2295 13.6502 22.2295C13.7399 22.2343 13.8297 22.2344 13.9194 22.2344C14.0092 22.2344 14.0989 22.2343 14.1886 22.2295C14.3332 22.2295 14.413 22.1512 14.413 22.0045C14.413 21.8333 14.423 21.6719 14.413 21.5105C14.408 21.3393 14.4778 21.2562 14.6423 21.2121C15.0162 21.1143 15.3403 20.9138 15.5846 20.6154C16.2825 19.8231 16.0133 18.6248 15.0611 18.1113Z" fill="white"/>
</g>
<defs>
<clipPath id="clip0">
<rect width="24" height="24" fill="white"/>
</clipPath>
</defs>
</svg>
