<svg width="24" height="24" viewBox="0 0 24 24" fill="none" xmlns="http://www.w3.org/2000/svg">
<g clip-path="url(#clip0)">
<path d="M22.2007 2.34059H13.4202C12.4261 2.34059 11.6175 3.14923 11.6175 4.1431V6.44418H3.44495C2.11216 6.44418 1.02813 7.5284 1.02813 8.861V17.6323H0.656251C0.240261 17.6323 -0.096875 17.9696 -0.096875 18.3854V19.5553C-0.096875 20.7612 0.88407 21.7421 2.08997 21.7421H19.7174C20.9231 21.7421 21.904 20.7612 21.904 19.5553V18.3854C21.904 17.9746 21.5749 17.6404 21.1658 17.6325V10.8847H22.2007C23.1945 10.8847 24.0032 10.0762 24.0032 9.0822V4.1431C24.0032 3.14924 23.1945 2.34059 22.2007 2.34059ZM13.4202 3.84685H22.2007C22.364 3.84685 22.4969 3.97974 22.4969 4.1431V4.81857H13.1238V4.1431C13.1238 3.97994 13.2568 3.84685 13.4202 3.84685ZM20.3978 19.5555C20.3978 19.9307 20.0926 20.2359 19.7174 20.2359H2.08997C1.71474 20.2359 1.40938 19.9307 1.40938 19.5555V19.1387H20.3978V19.5555ZM19.6597 17.6325H2.53438V8.861C2.53438 8.35889 2.94284 7.95043 3.44495 7.95043H11.6175V9.0822C11.6175 10.0762 12.4262 10.8847 13.4202 10.8847H19.6597V17.6325ZM22.2007 9.37845H13.4202C13.2568 9.37845 13.1238 9.24553 13.1238 9.0822V6.32482H22.4969V9.0822C22.4969 9.24556 22.364 9.37845 22.2007 9.37845Z" fill="black" stroke="black" stroke-width="0.1"/>
<path d="M15.3903 8.12604C15.3903 7.67029 15.0211 7.30078 14.5657 7.30078C14.1104 7.30078 13.7412 7.67029 13.7412 8.12604C13.7412 8.58179 14.1104 8.9513 14.5657 8.9513C15.0211 8.9513 15.3903 8.58179 15.3903 8.12604Z" fill="black"/>
<path d="M17.5651 8.12604C17.5651 7.67029 17.1959 7.30078 16.7405 7.30078C16.2852 7.30078 15.916 7.67029 15.916 8.12604C15.916 8.58179 16.2852 8.9513 16.7405 8.9513C17.1959 8.9513 17.5651 8.58179 17.5651 8.12604Z" fill="black"/>
</g>
<defs>
<clipPath id="clip0">
<rect width="24" height="24" fill="white"/>
</clipPath>
</defs>
</svg>
