<svg width="24" height="24" viewBox="0 0 24 24" fill="none" xmlns="http://www.w3.org/2000/svg">
<path d="M7.40234 11.0547C7.40234 11.5294 7.01764 11.9141 6.54297 11.9141C6.0683 11.9141 5.68359 11.5294 5.68359 11.0547V10.1953C5.68359 9.72064 6.0683 9.33594 6.54297 9.33594C7.01764 9.33594 7.40234 9.72064 7.40234 10.1953V11.0547ZM9.98047 9.33594C9.5058 9.33594 9.12109 9.72064 9.12109 10.1953V11.0547C9.12109 11.5294 9.5058 11.9141 9.98047 11.9141C10.4551 11.9141 10.8398 11.5294 10.8398 11.0547V10.1953C10.8398 9.72064 10.4551 9.33594 9.98047 9.33594ZM7.40234 14.0625C7.40234 13.5878 7.01764 13.2031 6.54297 13.2031C6.0683 13.2031 5.68359 13.5878 5.68359 14.0625V14.9219C5.68359 15.3965 6.0683 15.7812 6.54297 15.7812C7.01764 15.7812 7.40234 15.3965 7.40234 14.9219V14.0625ZM10.8398 14.9219V14.0625C10.8398 13.5878 10.4551 13.2031 9.98047 13.2031C9.5058 13.2031 9.12109 13.5878 9.12109 14.0625V14.9219C9.12109 15.3965 9.5058 15.7812 9.98047 15.7812C10.4551 15.7812 10.8398 15.3965 10.8398 14.9219ZM6.54297 17.0703C6.0683 17.0703 5.68359 17.455 5.68359 17.9297V18.7891C5.68359 19.2637 6.0683 19.6484 6.54297 19.6484C7.01764 19.6484 7.40234 19.2637 7.40234 18.7891V17.9297C7.40234 17.455 7.01764 17.0703 6.54297 17.0703ZM7.40234 6.32812C7.40234 5.85345 7.01764 5.46875 6.54297 5.46875C6.0683 5.46875 5.68359 5.85345 5.68359 6.32812V7.1875C5.68359 7.66217 6.0683 8.04688 6.54297 8.04688C7.01764 8.04688 7.40234 7.66217 7.40234 7.1875V6.32812ZM10.8398 6.32812C10.8398 5.85345 10.4551 5.46875 9.98047 5.46875C9.5058 5.46875 9.12109 5.85345 9.12109 6.32812V7.1875C9.12109 7.66217 9.5058 8.04688 9.98047 8.04688C10.4551 8.04688 10.8398 7.66217 10.8398 7.1875V6.32812ZM12.5586 6.32812V7.1875C12.5586 7.66217 12.9433 8.04688 13.418 8.04688C13.8926 8.04688 14.2773 7.66217 14.2773 7.1875V6.32812C14.2773 5.85345 13.8926 5.46875 13.418 5.46875C12.9433 5.46875 12.5586 5.85345 12.5586 6.32812ZM21.316 22.3607C20.9853 22.767 20.4974 23 19.9773 23H11.5853C11.0622 23 10.5728 22.7672 10.2425 22.3613C9.91014 21.953 9.78107 21.4224 9.88832 20.9058C10.1659 19.5684 10.9013 18.3515 11.9587 17.4792C12.3592 17.1489 12.7993 16.8739 13.2659 16.6591C12.7461 16.0684 12.4297 15.2945 12.4297 14.4477C12.4297 12.5995 13.9331 11.0961 15.7813 11.0961C17.6294 11.0961 19.1328 12.5995 19.1328 14.4477C19.1328 15.2945 18.8164 16.0684 18.2966 16.6591C18.7632 16.8739 19.2033 17.1487 19.6038 17.4792C20.6401 18.334 21.3669 19.5199 21.6569 20.8255C21.6636 20.8482 21.6693 20.871 21.6742 20.8944C21.7819 21.414 21.6514 21.9484 21.316 22.3607ZM14.1484 14.4477C14.1484 15.348 14.8809 16.0805 15.7813 16.0805C16.6816 16.0805 17.4141 15.348 17.4141 14.4477C17.4141 13.5474 16.6816 12.8149 15.7813 12.8149C14.8809 12.8149 14.1484 13.5474 14.1484 14.4477ZM19.9917 21.2569C19.9915 21.2564 19.9914 21.2557 19.9914 21.2552C19.5786 19.2678 17.808 17.8251 15.7813 17.8251C13.7545 17.8251 11.9837 19.2678 11.5712 21.2552C11.5673 21.2745 11.5806 21.2807 11.5806 21.2809C11.5809 21.2809 11.5824 21.2812 11.5853 21.2812H19.9773C19.9778 21.2807 19.9893 21.272 19.9917 21.2569ZM7.44531 21.2812H4.00781V4.86719H4.86719C5.34186 4.86719 5.72656 4.48248 5.72656 4.00781V2.71875H14.2773V4.00781C14.2773 4.48248 14.662 4.86719 15.1367 4.86719H15.9961V8.64844C15.9961 9.12311 16.3808 9.50781 16.8555 9.50781C17.3301 9.50781 17.7148 9.12311 17.7148 8.64844V4.00781C17.7148 3.53314 17.3301 3.14844 16.8555 3.14844H15.9961V1.85938C15.9961 1.3847 15.6114 1 15.1367 1H4.86719C4.39252 1 4.00781 1.3847 4.00781 1.85938V3.14844H3.14844C2.67377 3.14844 2.28906 3.53314 2.28906 4.00781V22.1406C2.28906 22.6153 2.67377 23 3.14844 23H7.44531C7.91998 23 8.30469 22.6153 8.30469 22.1406C8.30469 21.666 7.91998 21.2812 7.44531 21.2812Z" fill="black"/>
</svg>
