<svg width="24" height="24" viewBox="0 0 24 24" fill="none" xmlns="http://www.w3.org/2000/svg">
<g clip-path="url(#clip0)">
<path d="M19.5344 2H9.80432C8.44917 2 7.34668 3.10256 7.34668 4.45771V9.46956C7.34668 10.8247 8.44924 11.9273 9.80439 11.9273H19.5344C20.8896 11.9273 21.9921 10.8247 21.9921 9.46956V4.45771C21.9921 3.10256 20.8895 2 19.5344 2ZM9.80432 3.3501H19.5344C20.1418 3.3501 20.6361 3.84168 20.6415 4.44788H8.69725C8.70257 3.84162 9.19692 3.3501 9.80432 3.3501ZM19.5344 10.5772H9.80432C9.19355 10.5772 8.69671 10.0803 8.69671 9.46956V6.5804H20.642V9.46956C20.642 10.0803 20.1451 10.5772 19.5344 10.5772Z" fill="#000"/>
<path d="M17.1961 13.3933H2.68283C2.31003 13.3933 2.00781 13.6956 2.00781 14.0684V21.325C2.00781 21.6978 2.31003 22 2.68283 22H17.1961C17.5689 22 17.8711 21.6978 17.8711 21.325V14.0684C17.8711 13.6956 17.5689 13.3933 17.1961 13.3933ZM15.0112 20.6499H4.86774C4.64519 19.931 4.07684 19.3626 3.35791 19.1401V16.2533C4.07684 16.0307 4.64519 15.4624 4.86774 14.7434H15.0112C15.2337 15.4624 15.8021 16.0307 16.521 16.2533V19.1401C15.8021 19.3626 15.2337 19.931 15.0112 20.6499ZM16.5211 15.2259C16.3217 15.1091 16.1554 14.9428 16.0386 14.7434H16.5211V15.2259ZM3.8404 14.7434C3.72364 14.9428 3.55731 15.1091 3.35791 15.2259V14.7434H3.8404ZM3.35791 20.1674C3.55731 20.2842 3.72364 20.4505 3.8404 20.6499H3.35791V20.1674ZM16.0386 20.6499C16.1554 20.4505 16.3217 20.2842 16.5211 20.1674V20.6499H16.0386Z" fill="#000"/>
<path d="M9.93984 15.2075C8.56732 15.2075 7.45068 16.3241 7.45068 17.6966C7.45068 19.0692 8.56732 20.1858 9.93984 20.1858C11.3124 20.1858 12.429 19.0692 12.429 17.6966C12.429 16.3241 11.3124 15.2075 9.93984 15.2075ZM9.93984 18.8358C9.31176 18.8358 8.80072 18.3247 8.80072 17.6966C8.80072 17.0686 9.31176 16.5575 9.93984 16.5575C10.5679 16.5575 11.079 17.0686 11.079 17.6966C11.079 18.3248 10.5679 18.8358 9.93984 18.8358Z" fill="#000"/>
<path d="M3.12179 10.4063C3.49459 10.4063 3.79681 10.104 3.79681 9.73124V4.83723H5.3494C5.7222 4.83723 6.02442 4.53501 6.02442 4.16221C6.02442 3.78942 5.7222 3.4872 5.3494 3.4872H3.12179C2.749 3.4872 2.44678 3.78942 2.44678 4.16221V9.73124C2.44678 10.104 2.749 10.4063 3.12179 10.4063Z" fill="#000"/>
<path d="M21.3138 13.5621C20.941 13.5621 20.6387 13.8643 20.6387 14.2371V19.1311H19.0861C18.7134 19.1311 18.4111 19.4333 18.4111 19.8061C18.4111 20.1789 18.7134 20.4811 19.0861 20.4811H21.3138C21.6866 20.4811 21.9888 20.1789 21.9888 19.8061V14.2371C21.9888 13.8643 21.6866 13.5621 21.3138 13.5621Z" fill="#000"/>
</g>
<defs>
<clipPath id="clip0">
<rect width="20" height="20" fill="#000" transform="translate(2 2)"/>
</clipPath>
</defs>
</svg>
