<svg width="24" height="24" viewBox="0 0 24 24" fill="none" xmlns="http://www.w3.org/2000/svg">
<g>
<path d="M14.75 1C11.0659 1 7.90074 3.38253 6.85986 6.85606C3.47317 7.88373 1 11.0325 1 14.75C1 19.2989 4.70113 23 9.25 23C12.9675 23 16.1163 20.5268 17.1439 17.1401C20.6175 16.0993 23 12.9341 23 9.25C23 4.70113 19.2989 1 14.75 1ZM9.25 21.1667C5.71157 21.1667 2.83333 18.2884 2.83333 14.75C2.83333 11.6891 4.98893 9.12624 7.86023 8.4891C8.02405 8.45195 8.19122 8.42643 8.35952 8.40249C8.42509 8.39331 8.4891 8.37966 8.55556 8.37272C8.78428 8.34743 9.01636 8.33333 9.25 8.33333C9.90505 8.33333 10.537 8.43315 11.1328 8.61621L11.1397 8.61845C11.3711 8.68939 11.5954 8.77645 11.8145 8.87179C11.8955 8.90759 11.9734 8.94832 12.0528 8.98682C12.1797 9.04836 12.3048 9.11304 12.4268 9.18264C12.5275 9.24038 12.6271 9.30035 12.7242 9.36369C12.8144 9.42188 12.9014 9.48364 12.9887 9.54608C13.0955 9.62307 13.2031 9.6996 13.305 9.78308C13.3622 9.82985 13.4153 9.88155 13.4712 9.93011C13.6838 10.1168 13.8832 10.3162 14.0699 10.5288C14.1184 10.5847 14.1701 10.6373 14.2169 10.695C14.3004 10.7969 14.3765 10.9045 14.4539 11.0113C14.5164 11.0986 14.5781 11.1856 14.6363 11.2758C14.6996 11.3734 14.7596 11.4725 14.8174 11.5732C14.8865 11.6952 14.9512 11.8203 15.0132 11.9472C15.0521 12.0266 15.0929 12.105 15.1282 12.1855C15.2236 12.4046 15.3106 12.6289 15.3816 12.8603L15.3838 12.8672C15.5669 13.463 15.6667 14.095 15.6667 14.75C15.6667 14.9836 15.6526 15.2157 15.6273 15.4444C15.6199 15.5109 15.6067 15.5749 15.5975 15.6405C15.5736 15.8088 15.5481 15.9764 15.5109 16.1398C14.8738 19.0111 12.3109 21.1667 9.25 21.1667ZM13.243 7.5364C13.187 7.50507 13.1302 7.4762 13.0738 7.44643C12.9845 7.39966 12.8979 7.34841 12.8066 7.30477C13.3126 6.79921 14.0088 6.5 14.75 6.5C16.2667 6.5 17.5 7.73334 17.5 9.25C17.5 9.99121 17.2008 10.6874 16.6952 11.1934C16.6516 11.1021 16.6003 11.0155 16.5536 10.9262C16.5238 10.8694 16.4949 10.8125 16.4636 10.757C16.3537 10.5576 16.2356 10.3638 16.1098 10.1749C16.0997 10.1597 16.0901 10.1438 16.08 10.1286C15.4917 9.25783 14.7426 8.50879 13.8718 7.92043C13.8566 7.90991 13.8407 7.90074 13.8255 7.89067C13.6362 7.76445 13.4428 7.64628 13.243 7.5364ZM17.4944 15.0553C17.4982 14.9539 17.5 14.8523 17.5 14.75C17.5 14.1623 17.4358 13.5901 17.3185 13.0373C18.5601 12.1952 19.3333 10.7837 19.3333 9.25C19.3333 6.72268 17.2773 4.66667 14.75 4.66667C13.2163 4.66667 11.8049 5.43988 10.9627 6.6815C10.4099 6.56423 9.83769 6.5 9.25 6.5C9.14773 6.5 9.04612 6.50179 8.94474 6.5056C9.97913 4.29047 12.2072 2.83333 14.75 2.83333C18.2884 2.83333 21.1667 5.71157 21.1667 9.25C21.1667 11.7928 19.7095 14.0209 17.4944 15.0553Z" fill="black"/>
<path d="M10.2058 13.794L10.8539 14.4421L12.1501 13.1459L11.502 12.4977C11.1166 12.1119 10.6554 11.8465 10.1664 11.7004V10.1667H8.33308V11.7004C7.84409 11.8465 7.38284 12.1119 6.99747 12.4977C5.7554 13.7398 5.7554 15.7602 6.99747 17.0023C7.38284 17.3881 7.84409 17.6535 8.33308 17.7997V19.3334H10.1664V17.7997C10.6554 17.6535 11.1166 17.3881 11.502 17.0023L12.1501 16.3542L10.8539 15.058L10.2058 15.7061C9.67876 16.2331 8.82118 16.2331 8.29369 15.7061C7.76621 15.179 7.76665 14.3215 8.29369 13.794C8.82073 13.2665 9.67876 13.2669 10.2058 13.794Z" fill="black"/>
</g>
</svg>
