<svg width="24" height="24" viewBox="0 0 24 24" fill="none" xmlns="http://www.w3.org/2000/svg">
<g clip-path="url(#clip0)">
<path d="M22.1234 14.3174C21.9147 14.1237 21.673 13.9737 21.4111 13.8712V12.6077V12.5577H21.3611H19.7623H19.7123V12.6077V13.8756C18.8931 14.2038 18.3133 14.992 18.3133 15.9115C18.3133 17.4519 19.5286 18.083 20.1668 18.4144L20.1701 18.4161L20.1702 18.4162L20.1805 18.4216L20.1806 18.4216C20.5884 18.6333 20.8834 18.7962 21.0767 18.9485C21.2691 19.1002 21.3511 19.2338 21.3511 19.3858C21.3511 19.8124 20.9806 20.1872 20.5617 20.1872C20.134 20.1872 19.7723 19.8272 19.7723 19.4028V19.083V19.033H19.7223H18.1235H18.0735V19.083V19.4028C18.0735 20.0614 18.3342 20.684 18.8068 21.1554L18.8422 21.12L18.8069 21.1554C19.0687 21.4165 19.3771 21.6123 19.7123 21.7354V23.0002V23.0502H19.7623H21.3611H21.4111V23.0002V21.7333C21.7479 21.6082 22.0578 21.4087 22.3207 21.1426C22.7907 20.6672 23.0499 20.0432 23.0499 19.3858C23.0499 18.7434 22.782 18.1833 22.2584 17.7231C21.8772 17.3881 21.4104 17.1459 20.9653 16.9148L20.9636 16.914L20.9635 16.9139L20.9532 16.9085L20.9531 16.9084C20.5686 16.7088 20.3338 16.5588 20.1944 16.4089C20.0587 16.2629 20.0121 16.1154 20.0121 15.9115C20.0121 15.6394 20.2547 15.4107 20.5617 15.4107C20.8399 15.4107 21.1113 15.5946 21.1113 15.8853V16.0852V16.1352H21.1613H22.7601H22.8101V16.0852V15.8853C22.8101 15.2851 22.566 14.7282 22.1234 14.3174ZM22.1234 14.3174L22.0893 14.3541L22.1234 14.3174C22.1234 14.3174 22.1234 14.3174 22.1234 14.3174ZM16.2225 13.3109C17.7407 12.2286 18.733 10.4536 18.733 8.45066C18.733 5.16117 16.0568 2.48491 12.7673 2.48491C9.47782 2.48491 6.80156 5.16117 6.80156 8.45066C6.80156 10.4533 7.79377 12.2282 9.31172 13.3108C7.89297 13.8155 6.59254 14.6331 5.49637 15.7293C3.55433 17.6713 2.48467 20.2537 2.48467 23.0002V23.0502H2.53467H4.13352H4.18352V23.0002C4.18352 18.2672 8.03428 14.4164 12.7673 14.4164C14.2164 14.4164 15.5823 14.7778 16.7806 15.4145L16.8432 15.4478L16.8536 15.3776C16.9335 14.8349 17.1331 14.3302 17.4252 13.8902L17.4563 13.8434L17.4061 13.8179C17.0226 13.6236 16.6272 13.4548 16.2225 13.3109ZM8.50041 8.45066C8.50041 6.09795 10.4146 4.18376 12.7673 4.18376C15.12 4.18376 17.0342 6.09795 17.0342 8.45066C17.0342 10.8034 15.12 12.7175 12.7673 12.7175C10.4146 12.7175 8.50041 10.8034 8.50041 8.45066Z" fill="black" stroke="black" stroke-width="0.1"/>
</g>
<defs>
<clipPath id="clip0">
<rect width="20.4653" height="20.4653" fill="white" transform="translate(2.53467 2.53491)"/>
</clipPath>
</defs>
</svg>
