<svg width="24" height="24" viewBox="0 0 24 24" fill="none" xmlns="http://www.w3.org/2000/svg">
<g>
<g clip-path="url(#clip0)">
<path d="M12.5202 6.72946L12.5201 6.72948C12.4339 6.7436 12.041 6.82716 11.6698 7.21102C11.3008 7.59263 10.9383 8.28664 10.9383 9.55023C10.9383 10.7056 11.2279 11.385 11.5455 11.7841L12.5202 6.72946ZM12.5202 6.72946C12.5262 6.72846 12.5334 6.7279 12.5435 6.7279M12.5202 6.72946L12.5435 6.7279M12.5435 6.7279H13.5976M12.5435 6.7279H13.5976M13.5976 6.7279V12.3726H12.8053C12.3158 12.3726 11.8466 12.1622 11.5455 11.7841L13.5976 6.7279ZM10.5967 18.6198H10.6773L10.7105 18.5464L12.872 13.7709H13.6361V18.4948V18.6198H13.7611H15.139H15.264V18.4948V5.50513V5.38013H15.139H12.699C11.0632 5.38013 9.17028 7.08392 9.17028 9.79234C9.17028 11.1598 9.76955 12.1209 10.3666 12.7376C10.6647 13.0456 10.9626 13.2683 11.1863 13.4141C11.2916 13.4827 11.3806 13.5345 11.4458 13.5703L8.75198 18.4343L8.64921 18.6198H8.86133H10.5967Z" fill="black" stroke="black" stroke-width="0.25"/>
<path d="M2 1.875H1.875V2V22V22.125H2H22H22.125V22V2V1.875H22H2ZM20.6379 20.6379H3.36211V3.36211H20.6379V20.6379Z" fill="black" stroke="black" stroke-width="0.25"/>
</g>
</g>
<defs>
<clipPath id="clip0">
<rect width="20" height="20" fill="white" transform="translate(2 2)"/>
</clipPath>
</defs>
</svg>
