<svg width="20" height="20" viewBox="0 0 20 20" fill="none" xmlns="http://www.w3.org/2000/svg">
<path d="M18.9928 9.37631L10.1408 0.523375C9.79204 0.174608 9.3351 0 8.87815 0C8.42121 0 7.96382 0.174608 7.6155 0.523375L2.76778 5.3702C2.07025 6.06773 2.07025 7.22042 2.76778 7.91795L3.57124 8.74341H5.4246L3.69468 6.99105C3.57349 6.8694 3.55553 6.71724 3.55553 6.64363C3.55553 6.57001 3.57349 6.42323 3.69468 6.30204L4.33476 5.68171L7.37671 8.74341H10.2948L5.79357 4.21976L8.54196 1.4606C8.66315 1.33941 8.80454 1.31652 8.87815 1.31652C8.95177 1.31652 9.09316 1.33178 9.21435 1.45252L18.0668 10.3041C18.1885 10.4257 18.2069 10.5658 18.2069 10.6399C18.2069 10.7135 18.1755 10.8544 18.0538 10.9761L17.552 11.4658V13.3191L18.9812 11.903C19.6783 11.2041 19.6908 10.0738 18.9928 9.37631Z" fill="#000"/>
<path d="M14.8395 9.57335H2.31931C1.33316 9.57335 0.489746 10.3678 0.489746 11.354V16.0895H16.603V11.354C16.603 10.3678 15.8256 9.57335 14.8395 9.57335ZM4.86527 14.4772C4.5156 14.4772 4.19915 14.338 3.96574 14.1136C3.73233 14.338 3.41544 14.4772 3.06667 14.4772C2.34939 14.4772 1.76721 13.8959 1.76721 13.1773C1.76721 12.4595 2.34894 11.8778 3.06667 11.8778C3.41589 11.8778 3.73278 12.0165 3.96574 12.2409C4.19915 12.0165 4.5156 11.8778 4.86527 11.8778C5.583 11.8778 6.16472 12.4595 6.16472 13.1773C6.16472 13.8959 5.583 14.4772 4.86527 14.4772Z" fill="#000"/>
<path d="M0.489746 18.2086C0.489746 19.1947 1.33271 19.9995 2.31931 19.9995H14.8395C15.8256 19.9995 16.6035 19.1947 16.6035 18.2086V18.1035H0.489746V18.2086Z" fill="#000"/>
</svg>
