<svg width="22" height="22" viewBox="0 0 22 22" fill="none" xmlns="http://www.w3.org/2000/svg">
<path d="M13.75 0C10.0659 0 6.90074 2.38253 5.85986 5.85606C2.47317 6.88373 0 10.0325 0 13.75C0 18.2989 3.70113 22 8.25 22C11.9675 22 15.1163 19.5268 16.1439 16.1401C19.6175 15.0993 22 11.9341 22 8.25C22 3.70113 18.2989 0 13.75 0ZM8.25 20.1667C4.71157 20.1667 1.83333 17.2884 1.83333 13.75C1.83333 10.6891 3.98893 8.12624 6.86023 7.4891C7.02405 7.45195 7.19122 7.42643 7.35952 7.40249C7.42509 7.39331 7.4891 7.37966 7.55556 7.37272C7.78428 7.34743 8.01636 7.33333 8.25 7.33333C8.90505 7.33333 9.53705 7.43315 10.1328 7.61621L10.1397 7.61845C10.3711 7.68939 10.5954 7.77645 10.8145 7.87179C10.8955 7.90759 10.9734 7.94832 11.0528 7.98682C11.1797 8.04836 11.3048 8.11304 11.4268 8.18264C11.5275 8.24038 11.6271 8.30035 11.7242 8.36369C11.8144 8.42188 11.9014 8.48364 11.9887 8.54608C12.0955 8.62307 12.2031 8.6996 12.305 8.78308C12.3622 8.82985 12.4153 8.88155 12.4712 8.93011C12.6838 9.11676 12.8832 9.31616 13.0699 9.52877C13.1184 9.58472 13.1701 9.63731 13.2169 9.69505C13.3004 9.79688 13.3765 9.90452 13.4539 10.0113C13.5164 10.0986 13.5781 10.1856 13.6363 10.2758C13.6996 10.3734 13.7596 10.4725 13.8174 10.5732C13.8865 10.6952 13.9512 10.8203 14.0132 10.9472C14.0521 11.0266 14.0929 11.105 14.1282 11.1855C14.2236 11.4046 14.3106 11.6289 14.3816 11.8603L14.3838 11.8672C14.5669 12.463 14.6667 13.095 14.6667 13.75C14.6667 13.9836 14.6526 14.2157 14.6273 14.4444C14.6199 14.5109 14.6067 14.5749 14.5975 14.6405C14.5736 14.8088 14.5481 14.9764 14.5109 15.1398C13.8738 18.0111 11.3109 20.1667 8.25 20.1667ZM12.243 6.5364C12.187 6.50507 12.1302 6.4762 12.0738 6.44643C11.9845 6.39966 11.8979 6.34841 11.8066 6.30477C12.3126 5.79921 13.0088 5.5 13.75 5.5C15.2667 5.5 16.5 6.73334 16.5 8.25C16.5 8.99121 16.2008 9.68744 15.6952 10.1934C15.6516 10.1021 15.6003 10.0155 15.5536 9.92623C15.5238 9.86938 15.4949 9.81254 15.4636 9.75704C15.3537 9.55764 15.2356 9.36383 15.1098 9.17495C15.0997 9.15973 15.0901 9.14384 15.08 9.12862C14.4917 8.25783 13.7426 7.50879 12.8718 6.92043C12.8566 6.90991 12.8407 6.90074 12.8255 6.89067C12.6362 6.76445 12.4428 6.64628 12.243 6.5364ZM16.4944 14.0553C16.4982 13.9539 16.5 13.8523 16.5 13.75C16.5 13.1623 16.4358 12.5901 16.3185 12.0373C17.5601 11.1952 18.3333 9.78367 18.3333 8.25C18.3333 5.72268 16.2773 3.66667 13.75 3.66667C12.2163 3.66667 10.8049 4.43988 9.96271 5.6815C9.40993 5.56423 8.83769 5.5 8.25 5.5C8.14773 5.5 8.04612 5.50179 7.94474 5.5056C8.97913 3.29047 11.2072 1.83333 13.75 1.83333C17.2884 1.83333 20.1667 4.71157 20.1667 8.25C20.1667 10.7928 18.7095 13.0209 16.4944 14.0553Z" fill="black"/>
<path d="M9.20605 12.794L9.85416 13.4421L11.1504 12.1459L10.5023 11.4977C10.1169 11.1119 9.65565 10.8465 9.16666 10.7004V9.16669H7.33332V10.7004C6.84433 10.8465 6.38309 11.1119 5.99771 11.4977C4.75565 12.7398 4.75565 14.7602 5.99771 16.0023C6.38309 16.3881 6.84433 16.6535 7.33332 16.7997V18.3334H9.16666V16.7997C9.65565 16.6535 10.1169 16.3881 10.5023 16.0023L11.1504 15.3542L9.85416 14.058L9.20605 14.7061C8.67901 15.2331 7.82142 15.2331 7.29394 14.7061C6.76645 14.179 6.7669 13.3215 7.29394 12.794C7.82097 12.2665 8.67901 12.2669 9.20605 12.794Z" fill="black"/>
</svg>
