<svg viewBox="0 0 21 23" fill="none" xmlns="http://www.w3.org/2000/svg">
<path d="M12.4946 21.7589C14.878 21.9496 17.1661 21.4729 18.5961 20.5195C18.6914 20.4242 18.7868 20.3289 18.9775 20.2335C19.0728 20.1382 19.1681 20.0429 19.2635 19.9475C19.6448 19.4708 19.9308 18.9942 20.0261 18.6128C20.1215 18.4222 20.1215 18.3268 20.1215 18.1361V18.0408C20.1215 17.9455 20.1215 17.8501 20.1215 17.7548C20.1215 17.6595 20.1215 17.6595 20.1215 17.5641C20.1215 17.4688 20.1215 17.3735 20.1215 17.2781C19.8355 17.5641 19.4541 17.9455 19.0728 18.2315C16.022 20.7102 12.6853 20.9009 10.8739 20.7102C10.3019 20.7102 9.63455 20.6149 9.06253 20.4242C7.6325 20.0429 6.39313 19.3755 5.43977 18.6128C6.01179 19.2802 6.77447 19.7569 7.53716 20.2335C8.87186 21.0916 10.5879 21.5682 12.4946 21.7589ZM2.86571 4.97981C1.245 6.40985 0.291642 8.22123 0.00563487 10.0326C0.00563487 10.1279 0.00563487 10.3186 0.00563487 10.4139C0.00563487 10.6046 0.00563487 10.7953 0.00563487 10.986C-0.185037 17.0875 4.48642 22.2356 10.4926 22.7123H10.5879H10.6832H10.7786H10.8739C13.0666 22.9029 15.0687 22.5216 16.7847 21.7589C15.5454 22.1402 14.1153 22.2356 12.59 22.1402C10.6832 21.9496 8.77652 21.4729 7.34649 20.5195C4.48642 18.8035 3.43772 16.4201 2.96104 15.3714V15.2761C2.29369 13.846 2.00769 12.13 2.10302 10.2233V10.0326C2.38903 6.79119 4.48642 3.93112 7.25115 2.50108C5.53511 3.0731 4.00974 3.93112 2.86571 4.97981ZM12.9713 8.6979C12.876 9.36525 12.4946 10.8906 9.92055 10.7C9.82522 10.7 9.72988 10.7 9.63455 10.7C9.92055 11.3673 10.5879 12.416 12.6853 12.6067C15.164 12.7973 16.9754 11.0813 17.0707 9.46059C17.0707 9.26992 17.0707 8.98391 17.0707 8.79324C17.0707 8.79324 17.0707 8.6979 16.9754 8.6979C16.9754 8.60257 16.9754 8.60257 16.8801 8.60257C16.8801 8.60257 16.8801 8.50723 16.7847 8.50723C16.7847 8.50723 16.7847 8.4119 16.6894 8.4119C16.6894 8.4119 16.6894 8.31656 16.5941 8.31656L16.4987 8.22123L16.4034 8.12589L16.3081 8.03055L16.2127 7.93522L16.1174 7.83988L16.022 7.74455L15.9267 7.64921C15.9267 7.64921 15.8314 7.64921 15.8314 7.55388C15.8314 7.55388 15.736 7.55388 15.736 7.45854L15.6407 7.3632C15.6407 7.3632 15.5454 7.3632 15.5454 7.26787C15.5454 7.26787 15.45 7.26787 15.45 7.17253H15.3547H15.2594H15.164H15.0687H14.9733H14.878H14.7827H14.6873H14.592H14.4967H14.4013C14.306 7.17253 14.306 7.17253 14.306 7.17253C14.1153 7.17253 13.9247 7.17253 13.734 7.17253H13.6386C13.5433 7.17253 13.3526 7.17253 13.2573 7.17253C13.162 7.17253 12.9713 7.17253 12.876 7.26787H12.7806C12.6853 7.26787 12.4946 7.3632 12.3993 7.3632H12.3039C12.2086 7.3632 12.0179 7.45854 11.9226 7.45854H11.8273H11.7319C12.59 7.45854 13.0666 8.03055 12.9713 8.6979ZM12.3039 14.9901C12.2086 14.9901 12.0179 14.9901 11.9226 14.8947C8.01384 14.3227 6.29779 12.6067 5.63044 11.1766C5.43977 10.7953 5.2491 10.3186 5.15377 9.93727V9.84193V9.7466C5.15377 9.55593 5.05843 9.26992 5.05843 9.07925C4.86776 9.65126 4.77242 10.2233 4.67709 10.7953C4.39108 14.3227 7.06048 17.3735 10.5879 17.6595C10.5879 17.6595 10.5879 17.6595 10.6832 17.6595C10.8739 17.6595 11.0646 17.6595 11.2553 17.6595C13.8293 17.3735 15.5454 16.1341 16.6894 14.7994C16.9754 14.418 17.3567 13.9414 17.5474 13.56C17.7381 13.274 17.8334 12.988 18.0241 12.702C16.6894 14.418 14.4967 15.2761 12.3039 14.9901ZM9.15787 10.3186C9.2532 9.26992 9.72988 8.31656 10.3972 7.64921L10.4926 7.55388C11.4459 6.69585 12.876 6.21917 14.2107 6.31451C14.4013 6.31451 14.592 6.31451 14.7827 6.31451H14.878C14.9733 6.31451 14.9733 6.31451 15.0687 6.31451H15.164C15.2594 6.31451 15.2594 6.31451 15.3547 6.31451H15.45H15.5454H15.6407C15.6407 6.31451 15.736 6.31451 15.736 6.40985H15.8314C15.8314 6.40985 15.9267 6.40985 15.9267 6.50518C15.9267 6.50518 16.022 6.50518 16.022 6.60052L16.1174 6.79119L16.2127 6.88653H16.3081C15.5454 5.83783 14.1153 4.97981 11.9226 4.88447C9.34854 4.6938 7.15582 5.7425 5.82112 7.64921C5.72578 7.83988 5.63044 8.12589 5.53511 8.50723V8.60257C5.53511 8.88858 5.53511 9.26992 5.53511 9.55593C5.63044 10.0326 5.72578 10.5093 6.01179 10.986C6.5838 12.0347 7.72783 13.3694 10.2066 14.0367C9.53921 13.4647 8.9672 12.3207 9.15787 10.3186ZM11.8273 1.64306C11.5413 1.64306 11.3506 1.64306 11.0646 1.64306H10.9692C10.7786 1.64306 10.5879 1.64306 10.4926 1.64306H10.3019C10.2066 1.64306 10.0159 1.64306 9.92055 1.64306C9.82522 1.64306 9.72988 1.64306 9.63455 1.64306C9.53921 1.64306 9.44387 1.64306 9.34854 1.64306C9.2532 1.64306 9.06253 1.64306 8.9672 1.73839C8.87186 1.73839 8.87186 1.73839 8.77652 1.73839C8.68119 1.73839 8.49052 1.73839 8.29985 1.83373H8.20451C5.05843 2.40575 2.48436 4.21712 0.958992 6.31451C3.05638 2.21507 7.25115 -0.263656 12.1133 0.0223511H12.2086H12.3993C14.306 0.213023 16.2127 0.975709 17.6427 2.21507H17.7381C20.0261 4.12179 21.1702 6.69585 20.9795 9.55593C20.6935 13.274 18.1194 16.1341 14.592 17.1828C15.45 16.7061 16.2127 16.0388 16.8801 15.2761C17.3567 14.7994 17.6427 14.3227 18.0241 13.7507C19.2635 11.7486 19.3588 10.0326 19.4541 9.84193C19.5495 9.46059 19.5495 9.17458 19.5495 9.17458C19.8355 5.7425 17.0707 2.50108 13.0666 1.73839C12.876 1.73839 12.4946 1.64306 12.3039 1.64306H12.1133C12.0179 1.64306 12.0179 1.64306 11.9226 1.64306H11.8273Z" fill="black"/>
</svg>
