<svg width="24" height="24" viewBox="0 0 24 24" fill="none" xmlns="http://www.w3.org/2000/svg">
<g>
<path d="M22.9717 5H1.02835C0.460421 5 0 5.46042 0 6.02835V18.4707C0 19.0386 0.460421 19.499 1.02835 19.499H22.9717C23.5396 19.499 24 19.0386 24 18.4707V6.02835C24 5.46042 23.5396 5 22.9717 5ZM22.3032 17.8022H1.69683V6.69683H22.3032V17.8022Z" fill="black"/>
<path d="M15.5187 14.8152C15.5483 14.8606 15.5987 14.8879 15.653 14.8879H16.8031C16.8697 14.8879 16.9294 14.8467 16.953 14.7845C17.0944 14.4116 17.1851 14.174 17.215 14.0973C17.2914 14.0973 17.6446 14.0977 18.0233 14.0983H18.0447C18.48 14.0988 18.9424 14.0994 19.053 14.0994C19.0857 14.2391 19.1666 14.6092 19.2 14.7617C19.2161 14.8354 19.2813 14.8878 19.3566 14.8878H20.3596C20.4082 14.8878 20.4542 14.8658 20.4846 14.8279C20.5149 14.79 20.5265 14.7404 20.5161 14.6931L19.4254 9.75182C19.4091 9.67835 19.3441 9.62604 19.2688 9.62604H18.2891C17.8972 9.62604 17.6723 9.75668 17.5373 10.0628L15.5063 14.6628C15.4844 14.7125 15.4891 14.7697 15.5187 14.8152ZM18.3911 11.0454L18.4881 11.5003L18.8203 13.0197H17.6281H17.628L18.3911 11.0454Z" fill="black"/>
<path d="M11.6148 14.6461C11.9932 14.7788 12.5217 14.8614 13.0284 14.8668C13.029 14.8668 13.0295 14.8668 13.0301 14.8668C14.4828 14.8665 15.4282 14.1857 15.4385 13.1323C15.4441 12.5531 15.0746 12.115 14.2802 11.7556C13.7939 11.5194 13.4961 11.3626 13.4989 11.1223C13.4989 10.9064 13.7713 10.6878 14.2947 10.6877C14.3073 10.6875 14.3222 10.6874 14.3369 10.6874C14.7715 10.6874 15.0784 10.7859 15.2715 10.86C15.3164 10.8772 15.3665 10.8734 15.4083 10.8497C15.4501 10.8259 15.4789 10.7846 15.487 10.7372L15.6168 9.9744C15.6301 9.89569 15.5836 9.81918 15.5076 9.79487C15.269 9.71856 14.8834 9.62762 14.4003 9.62762C13.031 9.62762 12.0694 10.3165 12.0618 11.3021C12.0531 12.032 12.7493 12.4392 13.2741 12.682C13.8123 12.9303 13.9931 13.0891 13.9906 13.3115C13.9868 13.652 13.5592 13.807 13.1633 13.807C12.6 13.807 12.2964 13.722 11.8669 13.5434C11.8219 13.5247 11.7708 13.5275 11.728 13.5511C11.6853 13.5746 11.6557 13.6164 11.6474 13.6644L11.5099 14.4677C11.4966 14.5448 11.541 14.6202 11.6148 14.6461Z" fill="black"/>
<path d="M3.58601 9.92226C4.50424 10.2527 5.25533 10.7771 5.75812 11.4388C5.78922 11.4797 5.83693 11.5021 5.88582 11.5021C5.90832 11.5021 5.93102 11.4974 5.95245 11.4876C6.02063 11.4564 6.05814 11.382 6.04264 11.3087L5.77543 10.0453C5.77484 10.0425 5.7742 10.0399 5.77351 10.0372C5.67744 9.67637 5.37325 9.62272 5.15279 9.6138C5.15071 9.61375 5.14862 9.61369 5.14654 9.61369L3.64056 9.61124C3.64046 9.61124 3.6404 9.61124 3.6403 9.61124C3.56245 9.61124 3.49587 9.66718 3.48241 9.74385C3.46894 9.82053 3.51265 9.89587 3.58601 9.92226Z" fill="black"/>
<path d="M9.14541 14.8288C9.17587 14.8649 9.2207 14.8857 9.26793 14.8857H10.3775C10.4556 14.8857 10.5224 14.8294 10.5355 14.7524L11.3787 9.80795C11.3866 9.76141 11.3736 9.7137 11.3432 9.67763C11.3127 9.64157 11.2679 9.62073 11.2207 9.62073H10.1103C10.0322 9.62073 9.96543 9.6771 9.95234 9.75409L9.10994 14.6985C9.10203 14.7451 9.11501 14.7929 9.14541 14.8288Z" fill="black"/>
<path d="M4.71207 10.7594C4.65699 10.717 4.58106 10.715 4.52389 10.7542C4.46666 10.7933 4.44107 10.8649 4.46057 10.9315L5.58306 14.7666C5.60305 14.835 5.66572 14.8819 5.73689 14.8819C5.73695 14.8819 5.73705 14.8819 5.73705 14.8819L7.02973 14.8801C7.09369 14.8801 7.1515 14.8419 7.17677 14.7831L9.2986 9.84867C9.31987 9.79914 9.3149 9.74218 9.28519 9.69719C9.25553 9.65215 9.20526 9.62506 9.15134 9.62506H9.15124L7.98402 9.62565C7.91814 9.62565 7.85888 9.6661 7.83484 9.72749L6.46928 13.2159L6.3224 12.6843C6.32048 12.6772 6.31802 12.6703 6.31508 12.6636C6.09954 12.1633 5.52028 11.3805 4.71207 10.7594Z" fill="black"/>
</g>
</svg>
