<svg width="24" height="24" viewBox="0 0 24 24" fill="none" xmlns="http://www.w3.org/2000/svg">
<g>
<g clip-path="url(#clip0)">
<path d="M12.5199 6.72949L12.5198 6.72951C12.4337 6.74363 12.0407 6.82719 11.6696 7.21105C11.3006 7.59266 10.9381 8.28667 10.9381 9.55026C10.9381 10.7057 11.2277 11.3851 11.5452 11.7841L12.5199 6.72949ZM12.5199 6.72949C12.526 6.72849 12.5332 6.72793 12.5433 6.72793M12.5199 6.72949L12.5433 6.72793M12.5433 6.72793H13.5974M12.5433 6.72793H13.5974M13.5974 6.72793V12.3726H12.805C12.3155 12.3726 11.8463 12.1622 11.5452 11.7841L13.5974 6.72793ZM10.5964 18.6198H10.6771L10.7103 18.5464L12.8718 13.7709H13.6359V18.4948V18.6198H13.7609H15.1388H15.2638V18.4948V5.50516V5.38016H15.1388H12.6987C11.0629 5.38016 9.17004 7.08395 9.17004 9.79237C9.17004 11.1598 9.7693 12.121 10.3663 12.7377C10.6644 13.0456 10.9624 13.2683 11.1861 13.4142C11.2913 13.4828 11.3803 13.5345 11.4455 13.5703L8.75173 18.4343L8.64897 18.6198H8.86108H10.5964Z" fill="black" stroke="black" stroke-width="0.25"/>
<path d="M2 1.875H1.875V2V22V22.125H2H22H22.125V22V2V1.875H22H2ZM20.6379 20.6379H3.36211V3.36211H20.6379V20.6379Z" fill="black" stroke="black" stroke-width="0.25"/>
</g>
</g>
<defs>
<clipPath id="clip0">
<rect width="20" height="20" fill="white" transform="translate(2 2)"/>
</clipPath>
</defs>
</svg>
