<svg width="13" height="15" viewBox="0 0 13 15" fill="none" xmlns="http://www.w3.org/2000/svg">
<path d="M12.8387 13.3716C12.6705 12.9604 12.4992 12.5492 12.3123 12.1443C12.1472 11.783 11.9354 11.6771 11.5399 11.7674C11.0384 11.8827 10.5462 12.0353 10.0447 12.1381C9.07603 12.3405 8.10421 12.3592 7.14796 12.0571C5.94876 11.6802 5.31022 10.8112 4.91775 9.68984H8.16962C8.42504 9.68984 8.63061 9.48426 8.63061 9.22884V8.20407C8.63061 7.94865 8.42504 7.74307 8.16962 7.74307H4.60627C4.60627 7.45651 4.60315 7.18241 4.60627 6.9083H8.16962C8.42504 6.9083 8.63061 6.70272 8.63061 6.44731V5.42253C8.63061 5.16712 8.42504 4.96154 8.16962 4.96154H5.0548C5.0548 4.94908 5.0548 4.93662 5.06103 4.93039C5.43481 4.08005 5.9799 3.3979 6.87386 3.04281C7.91421 2.63165 8.97636 2.641 10.0479 2.86215C10.5556 2.96494 11.0539 3.12068 11.5617 3.23593C11.9323 3.32003 12.1472 3.21101 12.3061 2.86527C12.4899 2.46657 12.6581 2.06164 12.8263 1.6536C12.9851 1.27048 12.8917 0.999489 12.5304 0.787682C12.44 0.73473 12.3466 0.691122 12.25 0.653744C10.7487 0.0681584 9.20063 -0.149879 7.60272 0.105536C6.47827 0.286196 5.42858 0.672433 4.52217 1.37638C3.37903 2.26099 2.6377 3.42905 2.20786 4.80268L2.15491 4.96154H0.553889C0.298474 4.96154 0.0928955 5.16712 0.0928955 5.42253V6.44731C0.0928955 6.70272 0.298474 6.9083 0.553889 6.9083H1.81539C1.81539 7.18864 1.81539 7.45962 1.81539 7.74307H0.553889C0.298474 7.74307 0.0928955 7.94865 0.0928955 8.20407V9.22884C0.0928955 9.48426 0.298474 9.68984 0.553889 9.68984H2.07392C2.18917 10.0636 2.28573 10.4436 2.43212 10.8018C3.20149 12.6583 4.49102 13.9789 6.43155 14.6081C8.03568 15.1283 9.65228 15.1127 11.2689 14.6673C11.6894 14.5521 12.1068 14.4026 12.5055 14.2188C12.8917 14.0412 12.9914 13.7422 12.8387 13.3716Z" fill="#006344"/>
</svg>
