<svg width="18" height="18" viewBox="0 0 18 18" fill="none" xmlns="http://www.w3.org/2000/svg">
<path d="M1.22744 15.1361H4.09113V17.591C4.09113 17.7104 4.12934 17.8082 4.20623 17.8846C4.2829 17.9615 4.38093 18 4.50033 18H6.63516C6.74596 18 6.84183 17.9615 6.92281 17.8846C7.00379 17.8082 7.04416 17.7104 7.04416 17.591V15.1361H13.5001C13.6193 15.1361 13.7173 15.0981 13.7942 15.0212C13.8711 14.9444 13.9093 14.8465 13.9093 14.7271V13.0906C13.9093 12.9719 13.8711 12.8734 13.7942 12.797C13.7175 12.7201 13.6193 12.6816 13.5001 12.6816H7.04395V11.173H11.3905C13.095 11.173 14.4861 10.6537 15.5645 9.61345C16.6425 8.57434 17.1818 7.23205 17.1818 5.58651C17.1818 3.94208 16.6425 2.59975 15.5645 1.55958C14.4863 0.520423 13.095 0 11.3905 0H4.50012C4.38068 0 4.28287 0.0384257 4.20602 0.114889C4.12934 0.191776 4.09092 0.290222 4.09092 0.408992V8.45038H1.22744C1.10804 8.45038 1.01019 8.49078 0.933338 8.57172C0.856698 8.6527 0.818237 8.74857 0.818237 8.85933V10.764C0.818237 10.8834 0.856451 10.9813 0.933338 11.0581C1.01022 11.135 1.10782 11.173 1.22744 11.173H4.09113V12.6816H1.22744C1.10804 12.6816 1.01019 12.72 0.933338 12.797C0.856698 12.8734 0.818237 12.9717 0.818237 13.0906V14.727C0.818237 14.8465 0.856451 14.9443 0.933338 15.0212C1.01019 15.0981 1.108 15.1361 1.22744 15.1361ZM7.04395 2.72329H11.1349C12.0382 2.72329 12.7667 2.9874 13.3209 3.5158C13.8748 4.04423 14.1518 4.7348 14.1518 5.58673C14.1518 6.43908 13.8748 7.12986 13.3209 7.65766C12.7667 8.18651 12.0381 8.45063 11.1349 8.45063H7.04395V2.72329Z" fill="#006344"/>
</svg>
