<svg width="15" height="17" viewBox="0 0 15 17" fill="none" xmlns="http://www.w3.org/2000/svg">
<path d="M3.9611 13.2072C4.21648 13.9614 5.54367 14.7632 7.49997 14.7632C8.9481 14.7632 10.4114 14.2252 10.9037 13.5119L3.9611 13.2072ZM3.9611 13.2072C3.82736 12.8127 4.01563 12.4163 4.52055 12.0298L3.9611 13.2072ZM2.5208 2.40045L2.44977 2.50331L2.55263 2.57434L4.02522 3.59117L4.12809 3.6622L4.19911 3.55933C4.424 3.23359 4.88461 2.93237 5.483 2.71235C6.07736 2.49382 6.79054 2.36185 7.49997 2.36185C8.46494 2.36185 9.26854 2.56013 9.85833 2.84731C10.4528 3.13676 10.8135 3.50763 10.9247 3.84163C11.0306 4.15988 10.8882 4.50837 10.3815 4.88737L10.3814 4.88742C10.1061 5.09365 9.7534 5.36997 9.35081 5.69079H1.23682H1.11182V5.81579V7.60527V7.73027H1.23682H6.832C6.18613 8.25596 5.53753 8.78309 4.93075 9.26974H1.23682H1.11182V9.39474V11.1842V11.3092H1.23682H2.56789C2.01822 12.0683 1.85519 12.9583 2.14784 13.8216C2.7346 15.5534 4.90775 16.6776 7.49997 16.6776C8.37955 16.6776 9.37237 16.5189 10.2696 16.1819C11.1656 15.8454 11.9772 15.3269 12.4794 14.5995L12.5504 14.4967L12.4475 14.4257L10.9747 13.4091L10.8718 13.338L10.8008 13.4409C10.5761 13.7665 10.1155 14.0677 9.51713 14.2877C8.92276 14.5062 8.20953 14.6382 7.49997 14.6382C6.53835 14.6382 5.73647 14.441 5.14719 14.1555C4.55321 13.8677 4.19187 13.499 4.0795 13.1671L4.07948 13.167C3.97167 12.849 4.10761 12.5034 4.59653 12.129L4.59655 12.129C4.91597 11.8844 5.26948 11.6074 5.64506 11.3092H13.7631H13.8881V11.1842V9.39474V9.26974H13.7631H8.17143C8.66166 8.87096 9.64249 8.07323 10.0675 7.73027H13.7631H13.8881V7.60527V5.81579V5.69079H13.7631H12.4401C12.9917 4.93909 13.1493 4.06786 12.8598 3.19767C12.2796 1.45417 10.103 0.322372 7.49997 0.322372C6.62052 0.322372 5.62781 0.481106 4.73066 0.818061C3.83467 1.15458 3.02307 1.67311 2.5208 2.40045Z" fill="#006344" stroke="#006344" stroke-width="0.25"/>
</svg>
